<?xml version="1.0" encoding="utf-8"?>
<!-- Generator: Adobe Illustrator 21.0.2, SVG Export Plug-In . SVG Version: 6.00 Build 0)  -->
<svg version="1.1" xmlns="http://www.w3.org/2000/svg" xmlns:xlink="http://www.w3.org/1999/xlink" x="0px" y="0px"
	 viewBox="0 0 1900 500" style="enable-background:new 0 0 1900 500;" xml:space="preserve">
<style type="text/css">
	.st0{display:none;}
	.st1{display:inline;opacity:0.5;}
	.st2{fill:#FFFFFF;}
	.st3{opacity:5.000000e-02;fill:#2D2D2D;}
	.st4{opacity:0.5;fill:#FFFFFF;}
	.st5{opacity:0.35;fill:#2D2D2D;}
	.st6{opacity:5.000000e-02;fill:#FFFFFF;}
	.st7{fill:none;stroke:#2D2D2D;stroke-width:5.6441;stroke-linecap:round;stroke-miterlimit:10;}
	.st8{fill:none;stroke:#FFFFFF;stroke-width:5.6441;stroke-linecap:round;stroke-miterlimit:10;}
	.st9{fill:#2D2D2D;}
</style>
<g id="Layer_2" class="st0">
	<g class="st1">
		<path class="st2" d="M251,8c32.7,0,64.4,6.4,94.2,19c28.8,12.2,54.7,29.6,76.9,51.9s39.7,48.1,51.9,76.9
			c12.6,29.8,19,61.5,19,94.2s-6.4,64.4-19,94.2c-12.2,28.8-29.6,54.7-51.9,76.9S374,460.8,345.2,473c-29.8,12.6-61.5,19-94.2,19
			s-64.4-6.4-94.2-19c-28.8-12.2-54.7-29.6-76.9-51.9S40.2,373,28,344.2C15.4,314.4,9,282.7,9,250s6.4-64.4,19-94.2
			c12.2-28.8,29.6-54.7,51.9-76.9S128,39.2,156.8,27C186.6,14.4,218.3,8,251,8 M251,0C112.9,0,1,111.9,1,250s111.9,250,250,250
			s250-111.9,250-250S389.1,0,251,0L251,0z"/>
	</g>
</g>
<g id="Layer_1">
	<g>
		<path class="st3" d="M109.7,392.7c43.7,41.2,68.3,86.1,55,100.2c-13.3,14.2-59.6-7.8-103.3-49s-68.3-86.1-55-100.2
			C19.8,329.5,66,351.5,109.7,392.7z"/>
		<path class="st4" d="M85.3,412.6c9.7,9.1,15.1,19,12.1,22.1c-2.9,3.1-13.2-1.7-22.8-10.8c-9.7-9.1-15.1-19-12.1-22.1
			C65.4,398.7,75.6,403.5,85.3,412.6z"/>
		<path class="st5" d="M393.8,281.1c-5-6.5-11.9-10.8-19.9-12.7c7.2-3.9,13-9.8,16.1-17c3.1-7.2,5.8-21.9-10.1-39.6
			c-9.1-9.4-13.5-19.8-17.8-29.8c-7.2-16.7-14.6-34.1-43.5-45c-8.1-2.8-15.6-4.1-22.5-4.4c13.9-35.1,26.6-81.2,11.6-108
			c-7.9-14-19.7-16.1-20.2-16.2l-1.7,0c-14.1-0.1-35.4-0.2-56,80.2c-1.1,4-2.1,7.8-3.2,11.4c3.3-68.7-19-90.1-26.5-95.3
			c-7.8-5.4-16.7-6.2-24.3-2.2c-11.6,6.1-18.5,21.6-18.5,41.6c0,61.6-9,100.2-16.6,121.7c-0.2,0.5-0.3,0.9-0.5,1.4
			c-1.6-56.4-18-85.5-33.7-94c-6.7-3.7-13.5-3.6-19.2,0.1C78.2,79.5,74.1,94,76,113.1c17.1,160.6-35.9,200.7-61.4,220
			c-4.4,3.3-7.9,6-10.2,8.7c0,0,0,0,0,0c0,0,0,0,0,0c0,0-0.1,0.1-0.1,0.1c0,0,0,0,0,0.1c-15.9,17.5,15.5,66.5,55.3,104
			c21.3,20.1,44,36.4,63.8,45.7c11.6,5.5,21.5,8.3,29.3,8.3c6.1,0,10.9-1.7,14.2-5.1c0-0.1,0.1-0.1,0.1-0.2
			c6-3.9,36.4-24.3,54.7-52.2c11.8,3.1,23.7,4.6,35.4,4.6c22.7,0,44.6-5.7,63.9-16.9c24.8-14.4,43.9-37.3,49.8-59.8
			c4.1-15.6,11-28.3,17.1-39.6C398,311.9,406.1,297,393.8,281.1z M164.7,492.9c-13.3,14.2-59.6-7.8-103.3-49
			c-43.7-41.2-68.3-86.1-55-100.2c13.3-14.2,59.6,7.8,103.3,49C153.4,433.9,178,478.8,164.7,492.9z M319.9,295.2
			c-7.3,18.1-14.2,20.8-16.3,20.2c0.1,0,0.1,0,0.1,0l-0.4,1.1c-4-5.4-7.1-12.7-9-21.8c-5.9-27-0.7-62,3.8-78.2
			c9.7,1.8,10.1,2.7,14.7,13.8c2.2,5.3,5.2,12.7,10.4,23.1c4.7,9.2,12,15.5,21,18.2C333,276.5,323.9,285,319.9,295.2z"/>
		<path class="st6" d="M109.7,392.7c43.7,41.2,68.3,86.1,55,100.2c-13.3,14.2-59.6-7.8-103.3-49s-68.3-86.1-55-100.2
			C19.8,329.5,66,351.5,109.7,392.7z"/>
		<path class="st7" d="M6.4,343.7c14.2-16.8,92.6-40.8,72.4-230.8c-6.6-64.5,60.2-55.5,58.8,67.3"/>
		<path class="st7" d="M126.3,199.9c0,0,33.9-34.8,33.9-155.7c0-66.8,78.5-61.2,61.6,80.5"/>
		<path class="st7" d="M193.1,177.3c0,0,19.7-13.6,39.5-88c20.7-80.9,41.4-78.1,54.5-78.1c0,0,51.7,8.5,5.2,123.3"/>
		<path class="st7" d="M230.2,178.7c0,0,26.8-59.8,87.4-39.1c44.7,16.9,35.3,48.2,60.2,74.1c39.3,43.8-31.2,79.7-52.2,38.3
			c-16.9-33.4-10.3-35.3-28.2-38.6"/>
		<path class="st7" d="M300,205.3c-7.5,4-27.7,109.4,16,124.2"/>
		<path class="st7" d="M302.7,318.1c0,0,9.5,3.5,19.7-21.9c10.2-25.4,51.1-36.7,69.1-13.4c18,23.3-12.7,45.1-23.6,86.8
			c-10.9,41.6-70.3,90.6-147.2,69.8"/>
		<path class="st7" d="M164.4,492.9c0,0,41.4-25.8,59.7-60.1"/>
		<path class="st8" d="M109.7,392.7c43.7,41.2,68.3,86.1,55,100.2c-13.3,14.2-59.6-7.8-103.3-49s-68.3-86.1-55-100.2
			C19.8,329.5,66,351.5,109.7,392.7z"/>
		<path class="st7" d="M109.7,392.7c43.7,41.2,68.3,86.1,55,100.2c-13.3,14.2-59.6-7.8-103.3-49s-68.3-86.1-55-100.2
			C19.8,329.5,66,351.5,109.7,392.7z"/>
		<path class="st7" d="M85.3,412.6c9.7,9.1,15.1,19,12.1,22.1c-2.9,3.1-13.2-1.7-22.8-10.8c-9.7-9.1-15.1-19-12.1-22.1
			C65.4,398.7,75.6,403.5,85.3,412.6z"/>
		<g>
			<path class="st9" d="M616.7,106.7h73L666.3,226h108.4l23.4-119.3h73l-58,298.2h-73l22.5-116.8H654.2l-22.5,116.8h-73L616.7,106.7
				z"/>
			<path class="st9" d="M1007.8,271h2.9c0.4-2.9,0.8-6.7,0.8-7.9c0-14.2-10-19.6-27.1-19.6c-27.1,0-62.1,19.6-62.1,19.6l-15.4-54.2
				c0,0,44.2-23.8,91.7-23.8c36.3,0,85.1,14.2,85.1,68.4c0,6.3-0.8,13.3-2.1,20.9l-25,130.5h-65.9l2.5-12.9
				c1.3-7.1,3.8-13.3,3.8-13.3h-0.8c0,0-23.4,31.3-63.4,31.3c-32.1,0-63-19.2-63-55.5C869.8,289.4,952.8,271,1007.8,271z
				 M959.9,354.8c18.8,0,39.2-20.4,42.5-37.9l0.8-4.6h-6.7c-15.4,0-54.2,3.3-54.2,28.8C942.4,349,947.8,354.8,959.9,354.8z"/>
			<path class="st9" d="M1162.1,488.3h-71.7l57.5-298.2h65.1l-2.1,10.8c-1.3,7.1-3.8,13.8-3.8,13.8h0.8c15-18.3,39.2-29.6,64.6-29.6
				c51.7,0,83,36.7,83,93.4c0,78-58.8,131.4-117.6,131.4c-21.7,0-42.1-7.1-56.3-22.5h-0.8c0,0-0.8,7.5-2.9,18.3L1162.1,488.3z
				 M1228.9,350.2c25,0,53.8-24.2,53.8-66.3c0-23.4-12.5-37.9-33.4-37.9c-22.1,0-53.8,24.2-53.8,66.3
				C1195.5,333.1,1205.5,350.2,1228.9,350.2z"/>
			<path class="st9" d="M1397.3,321.5l14.2-71.3h-27.1l10.8-56.3h29.6l12.1-61.7h69.2l-12.1,61.7h45.5l-10.8,56.3h-45.5l-11.7,61.3
				c-0.8,3.8-1.3,9.2-1.3,11.3c0,17.5,15.8,20.9,31.7,20.9c6.3,0,11.3-0.4,11.3-0.4l-12.1,62.6c0,0-10.8,1.3-19.2,1.3
				c-47.1,0-86.7-19.2-86.7-68.8C1395.2,333.1,1396.1,327.3,1397.3,321.5z"/>
			<path class="st9" d="M1584.1,190.1h72.1l-41.7,214.8h-71.7L1584.1,190.1z M1601.2,106.7h70.5l-10.8,56.3h-70.5L1601.2,106.7z"/>
			<path class="st9" d="M1806.4,185.1c60.9,0,87.6,31.7,87.6,31.7l-36.3,45c0,0-19.6-16.7-48-16.7c-40.5,0-64.6,33.8-64.6,62.1
				c0,22.1,13.3,42.5,44.2,42.5c30.4,0,64.2-25.9,64.2-25.9l18.3,54.6c0,0-37.5,31.3-92.6,31.3c-70.9,0-107.2-43.8-107.2-98.4
				C1672.1,250.2,1724.7,185.1,1806.4,185.1z"/>
		</g>
	</g>
</g>
</svg>
