<?xml version="1.0" encoding="utf-8"?>
<!-- Generator: Adobe Illustrator 21.0.2, SVG Export Plug-In . SVG Version: 6.00 Build 0)  -->
<svg version="1.1" id="Layer_1" xmlns="http://www.w3.org/2000/svg" xmlns:xlink="http://www.w3.org/1999/xlink" x="0px" y="0px"
	 viewBox="0 0 226 66" style="enable-background:new 0 0 226 66;" xml:space="preserve">
<style type="text/css">
	.st0{fill:#FFFFFF;}
</style>
<g>
	<path class="st0" d="M0,0h12.6v20.6h18.7V0h12.6v51.4H31.3V31.3H12.6v20.1H0V0z"/>
	<path class="st0" d="M73.2,28.4h0.5v-0.6c0-3.1-2.4-4.1-5.5-4.1c-4.7,0-10,3.5-10,3.5L54,18.3c0,0,6.4-4.8,15.5-4.8
		c10.4,0,16.7,5.7,16.7,15.1v22.8H74.8v-2.2c0-1.2,0.1-2.3,0.1-2.3h-0.1c0,0-2.7,5.4-10.5,5.4c-6.9,0-12.6-4.6-12.6-11.9
		C51.7,29.6,67.5,28.4,73.2,28.4z M67.8,42.8c3.2,0,6.1-3.5,6.1-6.5v-0.8h-1.2c-4,0-8.5,1.2-8.5,4.2C64.3,41.4,65.3,42.8,67.8,42.8z
		"/>
	<path class="st0" d="M94.8,14.4h11.2v1.9c0,1.2-0.1,2.4-0.1,2.4h0.1c0,0,3.4-5.1,11.2-5.1c10.1,0,16.7,7.9,16.7,19.4
		c0,11.7-7.4,19.4-17.3,19.4c-6,0-9.4-3.5-9.4-3.5h-0.1c0,0,0.1,1.3,0.1,3.2v13.9H94.8V14.4z M114.2,42c3.9,0,7.3-3.2,7.3-8.9
		c0-5.5-3-9.1-7.3-9.1c-3.7,0-7.3,2.7-7.3,9.1C106.9,37.6,109.3,42,114.2,42z"/>
	<path class="st0" d="M142.5,24.8h-4.7V15h5.1V4.4H155V15h7.8v9.7H155v11.4c0,4.2,4.2,4.7,6.6,4.7c1,0,1.7-0.1,1.7-0.1v10.8
		c0,0-1.4,0.2-3.4,0.2c-5.9,0-17.3-1.6-17.3-14V24.8z"/>
	<path class="st0" d="M170.5,14.4H183v37.1h-12.4V14.4z M170.7,0h12.2v9.7h-12.2V0z"/>
	<path class="st0" d="M210.1,13.5c10.1,0,14.8,5.6,14.8,5.6l-5.3,8.3c0,0-3.6-3.6-8.7-3.6c-5.9,0-8.9,4.5-8.9,8.9
		c0,4.4,3,9.2,9.3,9.2c5.2,0,10.1-4.5,10.1-4.5l4.5,8.7c0,0-5.5,6.1-15.9,6.1c-13.2,0-20.7-9.2-20.7-19.4
		C189.4,23,196.8,13.5,210.1,13.5z"/>
</g>
</svg>
